<?xml version="1.0" encoding="UTF-8"?>
<svg version="1.1" xmlns="http://www.w3.org/2000/svg" width="64" height="64">
<path d="M0 0 C4.38731101 0.12903856 7.44386583 2.39719395 10.99609375 4.72265625 C13.56578543 6.36064685 16.24964242 7.69358015 19 9 C19.12715232 16.62913907 19.12715232 16.62913907 18.25 19.1875 C18.1675 19.785625 18.085 20.38375 18 21 C18.639375 21.7425 19.27875 22.485 19.9375 23.25 C22.34062005 26.45416007 22.67448884 28.15218418 22.4375 32.0625 C21.62073803 35.67958873 20.0432531 37.0125694 17 39 C12.45897076 39.69489059 8.40879549 39.12487786 4 38 C3.071875 37.95875 2.14375 37.9175 1.1875 37.875 C-4.37229159 36.3487827 -7.41385835 32.40163864 -10.51953125 27.69921875 C-13.90866596 21.57533557 -14.85462214 15.95170475 -15 9 C-14.08476562 8.51789062 -13.16953125 8.03578125 -12.2265625 7.5390625 C-11.0259405 6.90123206 -9.8254252 6.26320074 -8.625 5.625 C-8.02171875 5.30789062 -7.4184375 4.99078125 -6.796875 4.6640625 C-4.21449618 3.2867938 -2.08169419 2.08169419 0 0 Z M-4 7 C-4.33 7.66 -4.66 8.32 -5 9 C-4.01 8.67 -3.02 8.34 -2 8 C-2.66 7.67 -3.32 7.34 -4 7 Z M-3.125 11 C-3.84945313 11.37125 -4.57390625 11.7425 -5.3203125 12.125 C-6.15175781 12.558125 -6.15175781 12.558125 -7 13 C-6.75638643 19.82118001 -4.88103628 24.1311056 0 29 C0.99 29.33 1.98 29.66 3 30 C3.391875 29.113125 3.78375 28.22625 4.1875 27.3125 C6 24 6 24 8.6875 21.5 C11.32324289 19.15799626 11.32324289 19.15799626 11.3125 15.6875 C11.209375 14.800625 11.10625 13.91375 11 13 C9.71086513 12.32845067 8.41859796 11.66291141 7.125 11 C6.40570313 10.62875 5.68640625 10.2575 4.9453125 9.875 C1.58406972 8.3631157 0.00316453 9.38546347 -3.125 11 Z M12 10 C12.66 10.66 13.32 11.32 14 12 C14.26991906 14.68839385 14.08737357 17.29141936 14 20 C15.85776765 16.86501708 16.20140476 14.62528568 16 11 C14.68 10.67 13.36 10.34 12 10 Z M-12 11 C-11.67 13.64 -11.34 16.28 -11 19 C-10.67 19 -10.34 19 -10 19 C-10 16.36 -10 13.72 -10 11 C-10.66 11 -11.32 11 -12 11 Z M-10 19 C-9 22 -9 22 -9 22 Z M-9 22 C-8 24 -8 24 -8 24 Z M8.1875 25.25 C6.82094539 27.26386995 6.22096762 28.5693562 6 31 C6.99025093 33.66606019 7.4277953 34.71389765 10 36 C14.13064626 36.37615126 14.13064626 36.37615126 17.875 34.875 C19.52854531 32.11909116 19.39365568 30.14924548 19 27 C18 25 18 25 16 24 C12.81350376 23.60168797 10.8779472 23.39451917 8.1875 25.25 Z M-4 30 C-3.67 30.66 -3.34 31.32 -3 32 C-2.34 31.67 -1.68 31.34 -1 31 C-1.99 30.67 -2.98 30.34 -4 30 Z M0 33 C0.33 33.66 0.66 34.32 1 35 C1.99 34.67 2.98 34.34 4 34 C2.68 33.67 1.36 33.34 0 33 Z " fill="#000000" transform="translate(30,1)"/>
<path d="M0 0 C3.5 0.25 3.5 0.25 5.5 2.25 C5.87890625 4.16015625 5.87890625 4.16015625 6.0625 6.3125 C6.05913448 10.01736617 6.05913448 10.01736617 7.5 11.25 C7.64426614 15.91845228 7.54208415 20.57865953 7.5 25.25 C2.55 25.25 -2.4 25.25 -7.5 25.25 C-7.59765625 14.41015625 -7.59765625 14.41015625 -7.5 11.25 C-7.17 10.92 -6.84 10.59 -6.5 10.25 C-6.2746669 8.2220021 -6.05232815 6.19325126 -5.87890625 4.16015625 C-5.13676959 0.41886935 -3.62107145 0.25864796 0 0 Z M-2.5 5.25 C-2.17 6.24 -1.84 7.23 -1.5 8.25 C-0.18 7.92 1.14 7.59 2.5 7.25 C2.5 6.59 2.5 5.93 2.5 5.25 C0.85 5.25 -0.8 5.25 -2.5 5.25 Z M-5.5 14.25 C-5.86146457 16.53330101 -5.86146457 16.53330101 -5.6875 18.9375 C-5.625625 20.360625 -5.56375 21.78375 -5.5 23.25 C-1.87 23.25 1.76 23.25 5.5 23.25 C5.561875 21.826875 5.62375 20.40375 5.6875 18.9375 C5.72230469 18.13699219 5.75710937 17.33648437 5.79296875 16.51171875 C5.68341691 14.18332263 5.68341691 14.18332263 4.14453125 12.48046875 C2.50117992 11.04836753 2.50117992 11.04836753 0 10.875 C-2.98746775 11.32312016 -3.6876123 11.88397226 -5.5 14.25 Z " fill="#000000" transform="translate(55.5,37.75)"/>
<path d="M0 0 C3.5 0.25 3.5 0.25 5.5 2.25 C5.87890625 4.16015625 5.87890625 4.16015625 6.0625 6.3125 C6.05913448 10.01736617 6.05913448 10.01736617 7.5 11.25 C7.64426614 15.91845228 7.54208415 20.57865953 7.5 25.25 C2.55 25.25 -2.4 25.25 -7.5 25.25 C-7.59765625 14.41015625 -7.59765625 14.41015625 -7.5 11.25 C-7.17 10.92 -6.84 10.59 -6.5 10.25 C-6.2746669 8.2220021 -6.05232815 6.19325126 -5.87890625 4.16015625 C-5.13676959 0.41886935 -3.62107145 0.25864796 0 0 Z M-2.5 5.25 C-2.17 6.24 -1.84 7.23 -1.5 8.25 C-0.18 7.92 1.14 7.59 2.5 7.25 C2.5 6.59 2.5 5.93 2.5 5.25 C0.85 5.25 -0.8 5.25 -2.5 5.25 Z M-5.5 14.25 C-5.86146457 16.53330101 -5.86146457 16.53330101 -5.6875 18.9375 C-5.625625 20.360625 -5.56375 21.78375 -5.5 23.25 C-1.87 23.25 1.76 23.25 5.5 23.25 C5.561875 21.826875 5.62375 20.40375 5.6875 18.9375 C5.72230469 18.13699219 5.75710938 17.33648437 5.79296875 16.51171875 C5.68341691 14.18332263 5.68341691 14.18332263 4.14453125 12.48046875 C2.50117992 11.04836753 2.50117992 11.04836753 0 10.875 C-2.98746775 11.32312016 -3.6876123 11.88397226 -5.5 14.25 Z " fill="#000000" transform="translate(8.5,37.75)"/>
<path d="M0 0 C-0.39999717 2.31998359 -0.90567879 3.86323424 -2.25 5.8125 C-4 7 -4 7 -6.6875 6.6875 C-7.450625 6.460625 -8.21375 6.23375 -9 6 C-8 3 -8 3 -5.625 1.3125 C-3 0 -3 0 0 0 Z " fill="#000000" transform="translate(47,27)"/>
</svg>
