<?xml version="1.0" encoding="UTF-8"?>
<svg version="1.1" xmlns="http://www.w3.org/2000/svg" width="64" height="64">
<path d="M0 0 C4.31633181 3.18586395 7.91120739 6.79612218 9.625 11.9375 C10.33326508 19.22914702 9.85833297 23.94027829 5.625 29.9375 C4.573125 31.2059375 4.573125 31.2059375 3.5 32.5 C0.96932994 37.13956177 0.70942654 41.57484242 0.21484375 46.79296875 C-0.375 49.9375 -0.375 49.9375 -1.74609375 51.86328125 C-3.375 52.9375 -3.375 52.9375 -6.375 52.9375 C-6.375 53.9275 -6.375 54.9175 -6.375 55.9375 C-8.355 55.9375 -10.335 55.9375 -12.375 55.9375 C-12.375 54.9475 -12.375 53.9575 -12.375 52.9375 C-13.303125 52.751875 -13.303125 52.751875 -14.25 52.5625 C-16.375 51.9375 -16.375 51.9375 -18.375 49.9375 C-18.6484375 47.6171875 -18.6484375 47.6171875 -18.75 44.8125 C-19.34123394 36.88789064 -22.37450644 31.97257843 -27.375 25.9375 C-29.24295333 20.33364002 -29.11035867 14.23008879 -27.3125 8.625 C-20.50329728 -0.82002312 -11.22194349 -3.53283406 0 0 Z M-22.69140625 7.4453125 C-25.16332612 11.14888582 -26.20386314 14.88437519 -26.04296875 19.328125 C-24.81493051 24.12537379 -21.94930359 28.04885655 -19.22265625 32.1171875 C-17.375 34.9375 -17.375 34.9375 -16.375 37.9375 C-14.395 37.9375 -12.415 37.9375 -10.375 37.9375 C-10.375 36.9475 -10.375 35.9575 -10.375 34.9375 C-9.715 34.9375 -9.055 34.9375 -8.375 34.9375 C-8.375 35.9275 -8.375 36.9175 -8.375 37.9375 C-6.395 37.9375 -4.415 37.9375 -2.375 37.9375 C-1.818125 36.7825 -1.26125 35.6275 -0.6875 34.4375 C0.7917655 31.4206467 2.43900384 28.74128231 4.375 26 C7.11899857 21.66737067 7.58183078 17.95634823 6.625 12.9375 C5.16941238 8.58786169 3.11573911 6.32027651 -0.5 3.5 C-8.11854598 -0.27657537 -17.03825474 0.97018941 -22.69140625 7.4453125 Z M-16.375 40.9375 C-16.375 41.5975 -16.375 42.2575 -16.375 42.9375 C-11.755 42.6075 -7.135 42.2775 -2.375 41.9375 C-2.375 41.6075 -2.375 41.2775 -2.375 40.9375 C-6.995 40.9375 -11.615 40.9375 -16.375 40.9375 Z M-9.375 44.9375 C-9.375 45.2675 -9.375 45.5975 -9.375 45.9375 C-7.065 45.9375 -4.755 45.9375 -2.375 45.9375 C-2.375 45.6075 -2.375 45.2775 -2.375 44.9375 C-4.685 44.9375 -6.995 44.9375 -9.375 44.9375 Z M-15.375 45.9375 C-15.045 46.9275 -14.715 47.9175 -14.375 48.9375 C-12.725 48.2775 -11.075 47.6175 -9.375 46.9375 C-9.375 46.6075 -9.375 46.2775 -9.375 45.9375 C-11.355 45.9375 -13.335 45.9375 -15.375 45.9375 Z M-9.375 48.9375 C-10.035 49.5975 -10.695 50.2575 -11.375 50.9375 C-9.395 50.6075 -7.415 50.2775 -5.375 49.9375 C-7.26679203 49.2560177 -7.26679203 49.2560177 -9.375 48.9375 Z " fill="#000000" transform="translate(40.375,5.0625)"/>
<path d="M0 0 C0.61875 0.165 1.2375 0.33 1.875 0.5 C4.92432753 1.21748883 7.01229281 0.79672192 10 0 C9.42655063 2.86724686 9.1385485 3.8614515 7 6 C6.60235737 7.98821313 6.26224651 9.98944339 6 12 C5.34 12 4.68 12 4 12 C4 9.36 4 6.72 4 4 C2.68 3.67 1.36 3.34 0 3 C0 2.01 0 1.02 0 0 Z " fill="#000000" transform="translate(26,26)"/>
<path d="M0 0 C0.91007812 0.00902344 1.82015625 0.01804687 2.7578125 0.02734375 C3.45648438 0.03894531 4.15515625 0.05054688 4.875 0.0625 C4.545 1.0525 4.215 2.0425 3.875 3.0625 C0.245 3.7225 -3.385 4.3825 -7.125 5.0625 C-7.125 3.7425 -7.125 2.4225 -7.125 1.0625 C-4.60024538 -0.19987731 -2.81299534 -0.03606404 0 0 Z " fill="#000000" transform="translate(30.125,8.9375)"/>
<path d="M0 0 C1.9375 0.8125 1.9375 0.8125 4 2 C4.33 2.99 4.66 3.98 5 5 C3.35 4.67 1.7 4.34 0 4 C0 2.68 0 1.36 0 0 Z " fill="#000000" transform="translate(37,10)"/>
<path d="M0 0 C2.97 0.495 2.97 0.495 6 1 C6 1.99 6 2.98 6 4 C4.35 3.67 2.7 3.34 1 3 C0.67 2.01 0.34 1.02 0 0 Z " fill="#000000" transform="translate(52,31)"/>
<path d="M0 0 C-0.33 0.99 -0.66 1.98 -1 3 C-2.65 3.33 -4.3 3.66 -6 4 C-6 3.01 -6 2.02 -6 1 C-4 0 -4 0 0 0 Z " fill="#000000" transform="translate(10,31)"/>
<path d="M0 0 C0 0.99 0 1.98 0 3 C-1.98 3.33 -3.96 3.66 -6 4 C-5.67 3.01 -5.34 2.02 -5 1 C-3 0 -3 0 0 0 Z " fill="#000000" transform="translate(58,11)"/>
<path d="M0 0 C2.475 0.495 2.475 0.495 5 1 C5.33 1.99 5.66 2.98 6 4 C3.03 3.505 3.03 3.505 0 3 C0 2.01 0 1.02 0 0 Z " fill="#000000" transform="translate(4,11)"/>
<path d="M0 0 C2.64 0 5.28 0 8 0 C8 0.66 8 1.32 8 2 C5.36 2 2.72 2 0 2 C0 1.34 0 0.68 0 0 Z " fill="#000000" transform="translate(54,22)"/>
<path d="M0 0 C2.64 0 5.28 0 8 0 C8 0.66 8 1.32 8 2 C5.36 2 2.72 2 0 2 C0 1.34 0 0.68 0 0 Z " fill="#000000" transform="translate(0,22)"/>
</svg>
