<?xml version="1.0" encoding="UTF-8"?>
<svg version="1.1" xmlns="http://www.w3.org/2000/svg" width="64" height="64">
<path d="M0 0 C0.66 0 1.32 0 2 0 C2.33 1.65 2.66 3.3 3 5 C5.31 5 7.62 5 10 5 C10 9.95 10 14.9 10 20 C11.32 20.33 12.64 20.66 14 21 C14 21.66 14 22.32 14 23 C12.71086513 23.67154933 11.41859796 24.33708859 10.125 25 C9.40570313 25.37125 8.68640625 25.7425 7.9453125 26.125 C6 27 6 27 4 27 C4.99 29.31 5.98 31.62 7 34 C9.97 33.505 9.97 33.505 13 33 C13.33 33.99 13.66 34.98 14 36 C13.34773438 36.24234375 12.69546875 36.4846875 12.0234375 36.734375 C7.90418625 38.31402887 4.36603196 39.73955418 0.75 42.3125 C-2 44 -2 44 -5.25 43.8125 C-8 43 -8 43 -10 42 C-10.495 40.515 -10.495 40.515 -11 39 C-11.99 38.67 -12.98 38.34 -14 38 C-13.67 38.99 -13.34 39.98 -13 41 C-16.96 41 -20.92 41 -25 41 C-25 39.68 -25 38.36 -25 37 C-22.36 37 -19.72 37 -17 37 C-18.65 36.34 -20.3 35.68 -22 35 C-21.67 34.01 -21.34 33.02 -21 32 C-18.23723823 32.52268466 -15.6739124 33.10869587 -13 34 C-12.01 31.69 -11.02 29.38 -10 27 C-10.9075 26.71125 -11.815 26.4225 -12.75 26.125 C-15.32202908 25.23468224 -17.61346766 24.28505587 -20 23 C-19.67 22.01 -19.34 21.02 -19 20 C-14.25779349 20.59277581 -10.00706312 22.43477195 -6 25 C-5.34 25.99 -4.68 26.98 -4 28 C-2.68 28 -1.36 28 0 28 C0 27.01 0 26.02 0 25 C1.98 24.01 3.96 23.02 6 22 C0.72 21.67 -4.56 21.34 -10 21 C-10 18.69 -10 16.38 -10 14 C-9.34 14 -8.68 14 -8 14 C-7.67 15.32 -7.34 16.64 -7 18 C-2.38 18 2.24 18 7 18 C7 14.7 7 11.4 7 8 C4.69 7.67 2.38 7.34 0 7 C-0.38133299 5.0085944 -0.71325582 3.00720923 -1 1 C-0.67 0.67 -0.34 0.34 0 0 Z M-1 30 C-1.99 31.485 -1.99 31.485 -3 33 C-0.525 33.495 -0.525 33.495 2 34 C1.67 32.68 1.34 31.36 1 30 C0.34 30 -0.32 30 -1 30 Z M-8 32 C-8.87324262 34.44507934 -9.10151327 35.67700322 -8.3125 38.1875 C-7.13142586 40.18006505 -7.13142586 40.18006505 -4.875 40.75 C-4.25625 40.8325 -3.6375 40.915 -3 41 C-2.01 39.68 -1.02 38.36 0 37 C-2.31 37 -4.62 37 -7 37 C-7 35.35 -7 33.7 -7 32 C-7.33 32 -7.66 32 -8 32 Z " fill="#000000" transform="translate(49,18)"/>
<path d="M0 0 C4.61581142 2.18643699 6.72864085 4.49599804 9 9 C9.82885269 14.54808604 9.7240695 19.47140883 7.3125 24.5625 C4.21064779 27.8320199 1.61649202 29.75850523 -2.90234375 30.43359375 C-9.05071801 30.44150672 -13.31314296 30.4465054 -18 26 C-21.88937897 20.55860924 -21.79042609 15.48149391 -21 9 C-16.63929544 -0.20593186 -9.3488659 -1.1401056 0 0 Z M-16 7 C-18.82605874 11.2390881 -18.66012246 15.02124503 -18 20 C-15.94892412 23.39488422 -14.29515379 24.80323081 -11 27 C-6.17357185 27.70351326 -2.2163455 27.73487541 2 25.1875 C5.98148307 20.83275289 6.43214912 18.14071498 6.32421875 12.4453125 C5.86768231 9.00203768 4.53159355 7.31459982 2 5 C-3.92137701 1.05241533 -11.14654762 1.69153646 -16 7 Z " fill="#000000" transform="translate(38,2)"/>
<path d="M0 0 C3.00197464 1.80118478 4.45166366 2.90332732 6 6 C6.72902173 13.20655906 6.24396245 18.08417356 2 24 C1.67 24.33 1.34 24.66 1 25 C0.63239269 27.32817964 0.29758419 29.6618385 0 32 C-0.66 32 -1.32 32 -2 32 C-2.49324908 25.0671101 -1.96487163 21.8234052 2 16 C2.50280211 12.94084609 2.64278061 10.04017858 2 7 C0.2643867 4.83662931 -0.72826552 4.0929618 -3.375 3.1875 C-6.50103781 2.96421159 -8.22981483 3.57747248 -11 5 C-14.06928339 8.06928339 -14.44148906 11.77935406 -15 16 C-14.72938366 19.40126597 -14.72938366 19.40126597 -14 22 C-13.01 22.33 -12.02 22.66 -11 23 C-11 25.97 -11 28.94 -11 32 C-11.66 32 -12.32 32 -13 32 C-13 29.69 -13 27.38 -13 25 C-14.32 25 -15.64 25 -17 25 C-17 22.69 -17 20.38 -17 18 C-17.99 18 -18.98 18 -20 18 C-19.38989369 12.05146345 -17.59596843 5.51696069 -13.203125 1.2578125 C-9.09619102 -1.0869264 -4.57507103 -0.63034312 0 0 Z " fill="#000000" transform="translate(22,30)"/>
<path d="M0 0 C0.99 0.33 1.98 0.66 3 1 C1.61227692 3.84611724 0.09353426 6.57725674 -1.5 9.3125 C-3.66397636 13.16808031 -4.99474083 16.70480171 -6 21 C-6.66 20.67 -7.32 20.34 -8 20 C-8.61707806 12.59506325 -6.14873558 7.86498077 -1.75 2 C-1.1725 1.34 -0.595 0.68 0 0 Z " fill="#000000" transform="translate(13,11)"/>
<path d="M0 0 C0.99 0 1.98 0 3 0 C3.33 0.99 3.66 1.98 4 3 C5.98 3 7.96 3 10 3 C10.33 2.01 10.66 1.02 11 0 C11.99 0 12.98 0 14 0 C13.25 4.75 13.25 4.75 11 7 C3.90140845 7.56338028 3.90140845 7.56338028 1 5.75 C0 4 0 4 0 0 Z " fill="#000000" transform="translate(25,18)"/>
<path d="M0 0 C0.99 0 1.98 0 3 0 C3.33 0.99 3.66 1.98 4 3 C6.64 3 9.28 3 12 3 C12 3.99 12 4.98 12 6 C11 7 11 7 7.125 7.3125 C3.29943715 7.27136492 3.29943715 7.27136492 1 5.1875 C0 3 0 3 0 0 Z " fill="#000000" transform="translate(9,42)"/>
<path d="M0 0 C5.29284165 -0.34707158 5.29284165 -0.34707158 8 0 C10 1.8125 10 1.8125 11 4 C11 4.99 11 5.98 11 7 C10.01 7 9.02 7 8 7 C7.67 6.01 7.34 5.02 7 4 C4.69 4 2.38 4 0 4 C0 2.68 0 1.36 0 0 Z " fill="#000000" transform="translate(12,35)"/>
<path d="M0 0 C2.46528135 0.39064415 3.73307988 0.73239371 5.51953125 2.5234375 C6.15955078 3.43996094 6.15955078 3.43996094 6.8125 4.375 C7.25207031 4.98085937 7.69164062 5.58671875 8.14453125 6.2109375 C9 8 9 8 8 11 C3.94716257 9.64905419 3.12943872 7.62004582 1 4 C0.25 1.625 0.25 1.625 0 0 Z " fill="#000000" transform="translate(48,11)"/>
<path d="M0 0 C0.66 0 1.32 0 2 0 C3.125 5.75 3.125 5.75 2 8 C1.34 8 0.68 8 0 8 C-0.98120464 4.94736336 -0.98120464 3.05263664 0 0 Z " fill="#000000" transform="translate(51,27)"/>
<path d="M0 0 C0.66 0 1.32 0 2 0 C2.98120464 3.05263664 2.98120464 4.94736336 2 8 C1.34 8 0.68 8 0 8 C-1.125 2.25 -1.125 2.25 0 0 Z " fill="#000000" transform="translate(45,27)"/>
<path d="M0 0 C1.98 0 3.96 0 6 0 C6 0.99 6 1.98 6 3 C4.02 3 2.04 3 0 3 C0 2.01 0 1.02 0 0 Z " fill="#000000" transform="translate(34,10)"/>
<path d="M0 0 C1.98 0 3.96 0 6 0 C6 0.99 6 1.98 6 3 C4.02 3 2.04 3 0 3 C0 2.01 0 1.02 0 0 Z " fill="#000000" transform="translate(24,10)"/>
</svg>
