<?xml version="1.0" encoding="UTF-8"?>
<svg version="1.1" xmlns="http://www.w3.org/2000/svg" width="50" height="50">
<path d="M0 0 C3.91122434 2.28455987 6.97144953 4.6859838 8.48828125 9.046875 C9.14587952 14.48246578 9.18630107 18.67490502 6.67578125 23.609375 C4.48828125 26.046875 4.48828125 26.046875 1.48828125 28.046875 C4.45828125 28.376875 7.42828125 28.706875 10.48828125 29.046875 C10.48828125 29.706875 10.48828125 30.366875 10.48828125 31.046875 C9.81772705 31.03640137 9.14717285 31.02592773 8.45629883 31.01513672 C5.40449809 30.97344329 2.35275741 30.94750647 -0.69921875 30.921875 C-1.75431641 30.90511719 -2.80941406 30.88835938 -3.89648438 30.87109375 C-5.42885742 30.86142578 -5.42885742 30.86142578 -6.9921875 30.8515625 C-7.92957764 30.84108887 -8.86696777 30.83061523 -9.83276367 30.81982422 C-12.73733777 31.065997 -14.85141124 31.89452521 -17.51171875 33.046875 C-19.96875 33.2421875 -19.96875 33.2421875 -22.32421875 33.171875 C-23.11441406 33.15382812 -23.90460937 33.13578125 -24.71875 33.1171875 C-25.31042969 33.09398437 -25.90210938 33.07078125 -26.51171875 33.046875 C-26.51171875 31.726875 -26.51171875 30.406875 -26.51171875 29.046875 C-25.52171875 28.386875 -24.53171875 27.726875 -23.51171875 27.046875 C-24.9093178 23.50168616 -24.9093178 23.50168616 -26.51171875 20.046875 C-27.03020434 14.84501962 -27.13189888 10.41127129 -24.94921875 5.609375 C-18.20206404 -1.48378764 -9.40345617 -3.56834107 0 0 Z M-20.51171875 6.046875 C-21.13046875 6.60375 -21.74921875 7.160625 -22.38671875 7.734375 C-24.18643096 11.43378344 -24.18520063 15.02001457 -23.51171875 19.046875 C-22.22375709 21.07639035 -20.89613875 23.08189178 -19.51171875 25.046875 C-19.76171875 27.921875 -19.76171875 27.921875 -20.51171875 30.046875 C-19.36703125 29.5828125 -19.36703125 29.5828125 -18.19921875 29.109375 C-14.93037825 28.1675057 -12.37108512 27.85977953 -9.01171875 27.671875 C-3.11318354 27.21505909 0.00066052 25.28573365 4.36328125 21.359375 C6.17669606 17.63180012 6.24639225 14.09715323 5.48828125 10.046875 C3.43597227 6.19472362 0.52948167 3.65897842 -3.51171875 2.046875 C-10.17663016 1.18104059 -15.33448789 1.38736722 -20.51171875 6.046875 Z " fill="#000000" transform="translate(28.51171875,3.953125)"/>
<path d="M0 0 C3.68700366 0.21068592 5.00512471 1.0045553 7.8125 3.5 C10.38300225 6.85458627 10.53901391 9.74140206 10.30859375 13.875 C9.93170102 16.47031198 9.20223705 18.67066571 8 21 C8.66 21.33 9.32 21.66 10 22 C10 23.32 10 24.64 10 26 C8.39620659 26.05416188 6.79188594 26.09286638 5.1875 26.125 C4.29417969 26.14820312 3.40085937 26.17140625 2.48046875 26.1953125 C0 26 0 26 -3 24 C-6.24971222 23.45981037 -9.49857174 23.11164857 -12.7734375 22.7578125 C-16.4646653 21.89086553 -18.2961383 20.61982943 -21 18 C-21.8125 15.75 -21.8125 15.75 -22 14 C-19.10634721 14.44517735 -17.79642279 15.15888953 -15.4375 17 C-11.32166997 19.39466475 -8.26999189 19.55599469 -3.5859375 19.7265625 C-0.93474769 20.00689979 0.71888975 20.66132027 3 22 C3 20.68 3 19.36 3 18 C3.66 18 4.32 18 5 18 C6.22414155 14.32757535 6.46559007 11.8577463 6 8 C4.18459576 6.02052132 2.16340766 4.62255574 0 3 C0 2.01 0 1.02 0 0 Z " fill="#000000" transform="translate(38,21)"/>
<path d="M0 0 C5.61 0 11.22 0 17 0 C17 0.66 17 1.32 17 2 C11.39 2 5.78 2 0 2 C0 1.34 0 0.68 0 0 Z " fill="#000000" transform="translate(11,17)"/>
<path d="M0 0 C5.61 0 11.22 0 17 0 C17 0.66 17 1.32 17 2 C11.39 2 5.78 2 0 2 C0 1.34 0 0.68 0 0 Z " fill="#000000" transform="translate(11,12)"/>
<path d="M0 0 C3.96 0 7.92 0 12 0 C12 0.66 12 1.32 12 2 C8.04 2 4.08 2 0 2 C0 1.34 0 0.68 0 0 Z " fill="#000000" transform="translate(11,22)"/>
<path d="M0 0 C1.32 0 2.64 0 4 0 C4 0.66 4 1.32 4 2 C2.35 2 0.7 2 -1 2 C-0.67 1.34 -0.34 0.68 0 0 Z " fill="#000000" transform="translate(35,28)"/>
</svg>
